# xmcd CD database file
#
# Track frame offsets:
#	150
#	14675
#	22947
#	38250
#	47107
#	60445
#	71665
#	86262
#	97875
#	107860
#	124277
#	136790
#	151805
#	166112
#	174750
#	186157
#	211525
#	236325
#	252152
#	265112
#	283170
#
# Disc length: 3958 seconds
#
# Revision: 0
# Processed by: cddbd v1.4PL0 Copyright (c) Steve Scherf et al.
# Submitted via: Feurio! 1.63 - http://www.feurio.com
#
DISCID=030f7415
DTITLE=Various Artist - Jeff - Western Musical Show
DYEAR=1900
DGENRE=country
TTITLE0=Good Old Western Music
TTITLE1=Paint Your Wagon
TTITLE2=Wagons Ho!
TTITLE3=Hallelujah Trail
TTITLE4=Home On The Range
TTITLE5=Mule Train
TTITLE6=Love Me Tender
TTITLE7=The Deadwood Stage
TTITLE8=The Battle Of New Orleans
TTITLE9=The Gambler
TTITLE10=North To Alaska
TTITLE11=Wanderin' Star
TTITLE12=Down south Medley
TTITLE13=Sioux City Sue
TTITLE14=Once Upon A Time In The West
TTITLE15=Blaze Of Glory
TTITLE16=High Noon
TTITLE17=Secret Love
TTITLE18=Duelling Bankos
TTITLE19=Say It's Only Me
TTITLE20=Glory Hallelujah
EXTD=
EXTT0=
EXTT1=
EXTT2=
EXTT3=
EXTT4=
EXTT5=
EXTT6=
EXTT7=
EXTT8=
EXTT9=
EXTT10=
EXTT11=
EXTT12=
EXTT13=
EXTT14=
EXTT15=
EXTT16=
EXTT17=
EXTT18=
EXTT19=
EXTT20=
PLAYORDER=
